HIERARCHY
ROOT root
{
	OFFSET 0.000000 0.000000 0.000000
	CHANNELS 6 Xposition Yposition Zposition Zrotation Yrotation Xrotation
	JOINT lhip
	{
		OFFSET 0.058581 -0.082280 -0.017664
		CHANNELS 3 Zrotation Yrotation Xrotation
		JOINT lknee
		{
			OFFSET 0.043451 -0.386469 0.008037
			CHANNELS 3 Zrotation Yrotation Xrotation
			JOINT lankle
			{
				OFFSET -0.014790 -0.426874 -0.037428
				CHANNELS 3 Zrotation Yrotation Xrotation
				JOINT ltoe
				{
					OFFSET 0.041054 -0.060286 0.122042
					CHANNELS 3 Zrotation Yrotation Xrotation
					End Site
					{
						OFFSET 0.000000 0.000000 0.000000
					}
				}
			}
		}
	}
	JOINT rhip
	{
		OFFSET -0.060310 -0.090513 -0.013543
		CHANNELS 3 Zrotation Yrotation Xrotation
		JOINT rknee
		{
			OFFSET -0.043257 -0.383688 -0.004843
			CHANNELS 3 Zrotation Yrotation Xrotation
			JOINT rankle
			{
				OFFSET 0.019056 -0.420046 -0.034562
				CHANNELS 3 Zrotation Yrotation Xrotation
				JOINT rtoe
				{
					OFFSET -0.034840 -0.062106 0.130323
					CHANNELS 3 Zrotation Yrotation Xrotation
					End Site
					{
						OFFSET 0.000000 0.000000 0.000000
					}
				}
			}
		}
	}
	JOINT lowerback
	{
		OFFSET 0.004439 0.124404 -0.038385
		CHANNELS 3 Zrotation Yrotation Xrotation
		JOINT upperback
		{
			OFFSET 0.004488 0.137956 0.026820
			CHANNELS 3 Zrotation Yrotation Xrotation
			JOINT chest
			{
				OFFSET -0.002265 0.056032 0.002855
				CHANNELS 3 Zrotation Yrotation Xrotation
				JOINT lowerneck
				{
					OFFSET -0.013390 0.211636 -0.033468
					CHANNELS 3 Zrotation Yrotation Xrotation
					JOINT upperneck
					{
						OFFSET 0.010113 0.088937 0.050410
						CHANNELS 3 Zrotation Yrotation Xrotation
						End Site
						{
							OFFSET 0.000000 0.000000 0.000000
						}
					}
				}
				JOINT lclavicle
				{
					OFFSET 0.071702 0.114000 -0.018898
					CHANNELS 3 Zrotation Yrotation Xrotation
					JOINT lshoulder
					{
						OFFSET 0.122921 0.045205 -0.019046
						CHANNELS 3 Zrotation Yrotation Xrotation
						JOINT lelbow
						{
							OFFSET 0.255332 -0.015649 -0.022946
							CHANNELS 3 Zrotation Yrotation Xrotation
							JOINT lwrist
							{
								OFFSET 0.265709 0.012698 -0.007375
								CHANNELS 3 Zrotation Yrotation Xrotation
								End Site
								{
									OFFSET 0.000000 0.000000 0.000000
								}
							}
						}
					}
				}
				JOINT rclavicle
				{
					OFFSET -0.082954 0.112472 -0.023707
					CHANNELS 3 Zrotation Yrotation Xrotation
					JOINT rshoulder
					{
						OFFSET -0.113228 0.046853 -0.008472
						CHANNELS 3 Zrotation Yrotation Xrotation
						JOINT relbow
						{
							OFFSET -0.260127 -0.014369 -0.031269
							CHANNELS 3 Zrotation Yrotation Xrotation
							JOINT rwrist
							{
								OFFSET -0.269108 0.006794 -0.006027
								CHANNELS 3 Zrotation Yrotation Xrotation
								End Site
								{
									OFFSET 0.000000 0.000000 0.000000
								}
							}
						}
					}
				}
			}
		}
	}
}
MOTION
Frames: 12
Frame Time: 0.033333
1.137991 0.170813 1.127437 -87.571060 2.876046 87.621678 0.424244 -0.161275 6.951709 -2.458586 -15.343322 1.280996 7.478589 9.036861 -17.948419 0.000000 -0.000000 0.000000 4.966518 -1.799146 2.236106 3.728946 2.496008 7.175499 1.862903 -4.314609 -12.954230 0.000000 -0.000000 0.000000 -3.317719 1.153204 4.544130 2.179159 -2.607489 2.068982 2.115316 -1.472929 4.774482 5.281135 0.571148 5.646804 3.872106 -2.189301 7.905283 -23.654879 8.097480 4.290629 -63.562533 -5.398713 7.273498 12.167117 -29.642451 2.961777 -1.304564 -1.374072 -11.797924 21.865080 -5.639487 3.072071 63.207243 -1.182049 10.023094 -15.952547 28.016560 -4.175094 8.107858 0.755156 -12.953450 
1.137951 0.170886 1.127335 -87.623814 2.816876 87.761530 0.334921 -0.283645 6.848571 -2.451197 -15.363440 1.208732 7.390110 9.210409 -17.838521 0.000000 -0.000000 0.000000 4.815107 -1.692718 2.023461 3.898288 2.444784 7.301860 2.015371 -4.305050 -13.019289 0.000000 -0.000000 0.000000 -3.298454 1.160935 4.375926 2.148627 -2.509586 2.055740 2.061452 -1.529230 4.851262 5.277912 0.687333 5.293970 3.633730 -2.223074 7.964563 -23.533393 8.150842 4.229140 -63.756685 -5.417005 7.450610 12.260993 -29.695367 2.994626 -1.498588 -1.396744 -12.102185 21.873015 -5.698924 3.041743 63.246377 -1.100178 10.130478 -16.023534 27.826051 -4.120924 8.165034 0.792897 -12.880954 
1.137629 0.171048 1.127376 -87.575301 2.738403 87.836610 0.237236 -0.323161 6.772790 -2.422888 -15.385949 1.243839 7.430153 9.228457 -17.853171 0.000000 -0.000000 0.000000 4.689930 -1.780452 2.034218 3.980462 2.536822 7.178108 2.013787 -4.281676 -12.981956 0.000000 -0.000000 0.000000 -3.317338 1.225633 4.281513 2.123499 -2.526931 1.990946 2.037721 -1.611910 4.907609 5.238305 0.979734 5.174871 3.492231 -1.966355 8.096058 -23.537140 8.205299 4.128595 -63.744230 -5.451329 7.469897 12.140980 -29.474390 3.056670 -1.545418 -1.384618 -12.081405 21.916868 -5.832553 2.964356 63.210705 -1.157856 10.226254 -16.039300 27.687629 -4.078077 8.162358 0.758451 -12.830358 
1.137059 0.171503 1.127300 -87.589712 2.754396 87.659338 0.368427 -0.117667 6.955750 -2.524533 -15.483312 1.280901 7.556819 9.163597 -17.909210 0.000000 -0.000000 0.000000 4.741170 -1.931777 2.324245 3.931874 2.467082 7.086436 1.938058 -4.145723 -12.956460 0.000000 -0.000000 0.000000 -3.375328 1.245476 4.470762 2.272297 -2.664621 1.995117 2.163722 -1.528825 4.408671 5.543884 -0.753287 7.311661 3.419109 -2.438051 8.091061 -23.500550 8.191246 4.879169 -63.962884 -5.440450 7.218555 12.132704 -29.356052 3.313724 -1.912964 -1.217797 -12.250781 21.293285 -5.657956 3.640907 63.658320 -1.330263 9.699451 -16.072039 27.559840 -3.954528 8.240276 0.756082 -13.065555 
1.136685 0.171788 1.127428 -87.626633 2.764003 87.693094 0.394036 -0.144927 6.961526 -2.494902 -15.481606 1.218066 7.539330 9.170344 -17.888722 0.000000 -0.000000 0.000000 4.743138 -1.922696 2.393288 3.942999 2.471236 6.952827 2.053695 -4.096778 -12.847668 0.000000 -0.000000 0.000000 -3.310207 1.241217 4.415426 2.241958 -2.639437 1.991307 2.143202 -1.520431 4.512685 5.494491 -0.789565 6.819167 3.166985 -2.533794 8.120023 -23.616838 8.285340 4.733056 -63.899708 -5.347507 7.253595 12.130954 -29.175741 3.453930 -1.930836 -1.213684 -12.118530 21.392844 -5.744963 3.582556 63.646004 -1.391801 9.754890 -16.116161 27.491439 -3.997156 8.220652 0.728386 -13.049494 
1.136688 0.171814 1.127399 -87.631444 2.761347 87.715249 0.392142 -0.176858 6.910439 -2.505584 -15.479355 1.251283 7.680001 9.268167 -17.929856 0.000000 -0.000000 0.000000 4.658223 -1.988416 2.386969 4.059345 2.439195 6.947579 2.049850 -4.003384 -12.759241 0.000000 -0.000000 0.000000 -3.242239 1.225829 4.412286 2.284106 -2.688964 2.021033 2.125888 -1.583382 4.622012 5.581131 -1.100671 6.942918 3.114490 -2.762271 8.171355 -23.648664 8.374463 4.746526 -64.020495 -5.310813 7.241424 12.156045 -29.024668 3.451946 -2.137206 -1.221257 -12.247447 21.151830 -5.748093 3.622605 63.894820 -1.330926 9.744948 -16.181068 27.411080 -3.929857 8.316870 0.647059 -13.172061 
1.136586 0.171874 1.127734 -87.688559 2.746639 87.811860 0.270576 -0.364011 6.802180 -2.365469 -15.403137 1.263078 7.441228 9.361746 -17.844041 0.000000 -0.000000 0.000000 4.651956 -1.825189 2.396103 4.071630 2.596328 6.744427 2.176528 -4.174421 -12.660022 0.000000 -0.000000 0.000000 -3.106932 1.228435 4.340614 2.131113 -2.574313 1.996478 1.999886 -1.660419 4.924327 5.274444 0.397443 5.273803 2.738135 -1.995061 8.196596 -23.728490 8.498525 4.306991 -63.858264 -5.121589 7.411950 12.231947 -28.697779 3.570661 -1.939059 -1.298694 -11.844712 21.694420 -5.905296 3.161926 63.518345 -1.325245 10.138517 -16.136935 27.057170 -4.098254 8.108625 0.754911 -13.046851 
1.136552 0.172065 1.127451 -87.699430 2.756146 87.761507 0.339537 -0.278025 6.725948 -2.503787 -15.490885 1.539295 7.644178 9.337786 -17.935134 0.000000 -0.000000 0.000000 4.626421 -2.009089 2.447670 4.100036 2.579260 6.753026 2.017991 -4.002194 -12.662548 0.000000 -0.000000 0.000000 -3.154153 1.299385 4.434819 2.318306 -2.697091 2.016816 2.101362 -1.614541 4.520281 5.618899 -1.785081 7.018609 2.800304 -3.254854 8.366109 -23.689531 8.375547 4.959846 -64.073030 -5.080367 7.172611 12.394619 -28.519978 3.452886 -2.289262 -0.942607 -12.011524 21.179971 -5.653739 3.801309 63.897826 -1.463678 9.688903 -16.345291 27.227852 -3.947976 8.289651 0.644520 -12.968693 
1.136589 0.171965 1.127809 -87.729655 2.731827 87.921638 0.208591 -0.451566 6.529999 -2.393150 -15.394062 1.568013 7.392735 9.452811 -17.876046 0.000000 -0.000000 0.000000 4.599960 -1.931365 2.391372 4.111164 2.814969 6.513410 2.269396 -4.225609 -12.601100 0.000000 -0.000000 0.000000 -3.037930 1.279276 4.231143 2.152625 -2.566523 2.092884 1.955109 -1.652515 5.050295 5.379779 0.103339 4.566575 2.675172 -2.573842 8.353766 -23.792574 8.586629 4.086410 -63.854562 -4.962298 7.436983 12.202835 -28.034501 3.500117 -2.009796 -1.279469 -11.857463 21.880691 -5.936336 3.012157 63.367832 -1.496122 10.296788 -16.221520 27.065491 -4.138621 7.974758 0.769186 -12.915969 
1.136567 0.171823 1.127825 -87.710254 2.738155 87.870054 0.191730 -0.469041 6.528100 -2.411818 -15.393300 1.711013 7.404061 9.451740 -17.925904 0.000000 -0.000000 0.000000 4.612703 -1.765940 2.505110 4.068377 2.687974 6.400974 2.218183 -4.338991 -12.449491 0.000000 -0.000000 0.000000 -2.964397 1.248704 4.366788 2.147735 -2.569305 2.132875 1.953037 -1.671012 5.089859 5.375484 0.050153 4.677234 2.594322 -2.478662 8.279832 -23.816426 8.579927 4.146754 -63.875839 -4.866542 7.400332 12.240312 -27.682513 3.535778 -2.123629 -1.344120 -11.797216 21.805632 -5.893321 3.017082 63.465852 -1.523454 10.294019 -16.224381 27.033775 -4.236108 7.969917 0.740536 -13.018957 
1.136728 0.171733 1.127785 -87.817330 2.782362 87.868306 0.195055 -0.395780 6.459971 -2.389106 -15.344659 1.826285 7.451690 9.486901 -17.970707 0.000000 -0.000000 0.000000 4.617388 -1.764172 2.513181 4.089066 2.765007 6.340579 2.256337 -4.212894 -12.441710 0.000000 -0.000000 0.000000 -2.915331 1.279549 4.488541 2.163017 -2.559048 2.127653 2.007467 -1.656885 4.929414 5.363458 -0.198295 5.210664 2.377784 -2.242059 7.986466 -23.891533 8.564768 4.316013 -63.841737 -4.779071 7.189841 12.214829 -27.472664 3.450211 -2.174667 -1.150072 -11.796741 21.729757 -5.868414 3.270123 63.433734 -1.352222 10.106804 -16.129657 26.996506 -4.201602 7.855219 0.860368 -12.820514 
1.137026 0.171476 1.127892 -87.869738 2.762760 87.930985 0.132698 -0.426902 6.334543 -2.400704 -15.312246 1.891922 7.333726 9.475878 -18.003569 0.000000 -0.000000 0.000000 4.550483 -1.769610 2.383141 4.096279 2.793390 6.376323 2.380383 -4.166315 -12.328148 0.000000 -0.000000 0.000000 -2.961145 1.316845 4.419662 2.197274 -2.535700 2.217928 2.021735 -1.639805 5.170426 5.434445 -0.142268 4.498784 2.453483 -2.678144 8.245602 -23.969032 8.569745 4.015592 -63.790494 -4.768280 7.385639 12.127235 -27.163316 3.472452 -2.056253 -1.294564 -11.555095 21.905233 -5.854335 2.941547 63.268072 -1.372255 10.310042 -16.222107 26.955806 -4.355246 7.815798 0.832544 -12.889758 
